<?xml version="1.0" encoding="UTF-8"?>
<svg xmlns="http://www.w3.org/2000/svg" width="512" height="512" viewBox="0 0 512 512"><g><path d="M476,56H36A28.031,28.031,0,0,0,8,84V428a28.031,28.031,0,0,0,28,28H176v40a8,8,0,0,0,8,8h48a8,8,0,0,0,8-8V456h64v40a8,8,0,0,0,8,8h48a8,8,0,0,0,8-8V456H476a28.031,28.031,0,0,0,28-28V84A28.031,28.031,0,0,0,476,56ZM224,488H192V368h32ZM200,352V320h16v32Zm8-50a64.072,64.072,0,0,1-64-64,63.266,63.266,0,0,1,14.2-40.2A64.476,64.476,0,0,1,184,178.66V238a24,24,0,0,0,48,0V178.66a64.476,64.476,0,0,1,25.8,19.14A63.266,63.266,0,0,1,272,238,64.072,64.072,0,0,1,208,302ZM352,488H320V368h32ZM328,352V312h16v40Zm160,76a12.01,12.01,0,0,1-12,12H368V360a8,8,0,0,0-8-8V304a8,8,0,0,0-8-8h-8V256h16a7.988,7.988,0,0,0,7.86-9.47l-9-48A8,8,0,0,0,351,192H320a8,8,0,0,0-7.89,6.68l-8,48A8.007,8.007,0,0,0,312,256h16v40h-8a8,8,0,0,0-8,8v48a8,8,0,0,0-8,8v80H240V360a8,8,0,0,0-8-8V314.32a80.019,80.019,0,0,0-6.23-154.34,8,8,0,0,0-9.77,7.8V238a8,8,0,0,1-16,0V167.78a8,8,0,0,0-9.77-7.8A80.015,80.015,0,0,0,184,314.32V352a8,8,0,0,0-8,8v80H36a12.01,12.01,0,0,1-12-12V120H488ZM321.44,240l5.34-32h17.58l6,32ZM488,104H24V84A12.01,12.01,0,0,1,36,72H476a12.01,12.01,0,0,1,12,12Z"/><path d="M40,96h8a8,8,0,0,0,0-16H40a8,8,0,0,0,0,16Z"/><path d="M72,96h8a8,8,0,0,0,0-16H72a8,8,0,0,0,0,16Z"/><path d="M104,96h8a8,8,0,0,0,0-16h-8a8,8,0,0,0,0,16Z"/></g></svg>
