<svg width="500" height="500" viewBox="0 0 500 500" fill="none" xmlns="http://www.w3.org/2000/svg">
<path d="M83.74 284.625H142.2L155.15 317H178.83L123.515 180.1H103.72L47.48 317H71.16L83.74 284.625ZM136.28 267.05H89.66L112.785 205.445L136.28 267.05ZM207.229 317H247.374C264.209 317 272.349 315.705 281.969 309.045C292.514 302.755 298.434 291.285 298.619 277.78C298.619 271.675 297.324 251.51 273.644 243.925C283.449 238.745 291.034 229.68 291.034 215.25C291.034 204.335 287.149 193.605 277.159 187.5C270.499 182.69 261.064 180.1 248.114 180.1H207.229V317ZM229.059 199.34H246.449C253.294 199.34 257.549 200.08 260.879 201.745C265.689 203.965 270.129 209.515 270.129 217.84C270.129 225.055 267.724 230.975 260.879 234.675C256.994 236.525 251.999 236.895 247.004 236.895H229.059V199.34ZM229.059 255.21H249.224C255.884 255.21 260.324 255.395 265.689 257.615C272.719 260.575 277.714 267.05 277.714 276.485C277.529 286.845 272.349 292.58 265.689 295.54C261.064 297.39 255.514 297.76 251.074 297.76H229.059V255.21ZM435.807 275.375C432.847 280.37 420.082 300.35 393.627 300.35C364.767 300.35 344.047 276.855 344.047 248.365C344.047 220.615 364.397 196.75 393.442 196.75C417.492 196.935 431.367 213.585 435.807 222.465H458.932C452.272 203.595 430.442 177.695 393.627 177.51C351.262 177.51 322.217 210.81 322.217 248.365C322.217 287.215 352.557 319.59 393.812 319.59C424.892 319.59 450.237 300.35 458.747 275.375H435.807Z" fill="black"/>
</svg>
