<svg width="2665" height="2710" viewBox="0 0 2665 2710" fill="none" xmlns="http://www.w3.org/2000/svg">
<rect x="1169" y="286" width="1491" height="1120" stroke="black" stroke-width="10"/>
<rect x="1720" y="1405" width="425" height="113" stroke="black" stroke-width="10"/>
<rect x="1169" y="1253" width="1491" height="153" stroke="black" stroke-width="10"/>
<line x1="1595" y1="1518" x2="2233.11" y2="1518" stroke="black" stroke-width="10"/>
<circle cx="1949" cy="1330" r="34.5" fill="black" stroke="black"/>
<rect x="453" y="444" width="363" height="296" fill="black"/>
<rect x="453" width="363" height="296" fill="#00BA71"/>
<rect x="21" y="148" width="363" height="296" fill="#00BA71"/>
<line x1="19.9741" y1="1618.5" x2="2629.02" y2="1625" stroke="black" stroke-width="20"/>
<line x1="2653" y1="2710" x2="2653" y2="1710" stroke="black" stroke-width="20"/>
<line x1="624" y1="2710" x2="624" y2="2210" stroke="black" stroke-width="20"/>
<line x1="384" y1="2700" x2="884" y2="2700" stroke="black" stroke-width="20"/>
<line x1="10" y1="2710" x2="10" y2="1710" stroke="black" stroke-width="20"/>
<rect x="287" y="1378" width="592" height="909" stroke="black" stroke-width="10"/>
<rect x="410" y="2287" width="169" height="909" transform="rotate(-90 410 2287)" stroke="black" stroke-width="10"/>
</svg>
