<svg width="500" height="500" viewBox="0 0 500 500" fill="none" xmlns="http://www.w3.org/2000/svg">
<path d="M93.225 397H113.875V267.5H68.725V285H93.225V397ZM200.284 397H285.684V379.5H228.459C240.709 367.6 252.784 355.7 264.859 343.8C279.034 329.975 284.809 319.475 285.159 305.125C285.334 283.25 269.759 265.05 244.034 265.05C234.934 265.05 219.884 267.85 210.609 280.45C203.434 289.375 200.809 299.875 200.459 311.25H220.234C220.584 294.8 228.459 283.25 242.284 283.25C255.059 283.25 264.684 291.825 264.684 306.525C264.159 321.925 252.784 331.725 240.359 343.1C227.059 355.525 213.759 368.125 200.284 380.725V397ZM371.568 300.575C372.093 292.875 376.468 283.25 388.718 283.25C398.693 283.25 404.818 291.125 404.818 300.925C404.818 310.375 396.418 319.3 382.943 319.3H376.818V334.875H386.443C400.968 334.875 412.518 344.5 412.518 357.8C412.518 370.75 404.118 381.25 389.418 381.25C375.943 381.075 366.493 371.45 365.793 358.85H344.968C345.143 366.025 347.243 375.125 352.668 382.825C360.718 393.85 375.418 399.45 388.893 399.45C413.743 399.45 433.168 382.125 433.168 358.85C433.168 352.2 431.068 333.475 407.793 325.425C416.018 321.05 425.293 312.825 425.293 298.125C425.293 279.225 410.243 265.05 389.418 265.05C373.318 265.05 352.143 274.5 351.268 300.575H371.568Z" fill="black"/>
<path d="M84.6 166.75H132L142.5 193H161.7L116.85 82H100.8L55.2 193H74.4L84.6 166.75ZM127.2 152.5H89.4L108.15 102.55L127.2 152.5ZM211.726 193H244.276C257.926 193 264.526 191.95 272.326 186.55C280.876 181.45 285.676 172.15 285.826 161.2C285.826 156.25 284.776 139.9 265.576 133.75C273.526 129.55 279.676 122.2 279.676 110.5C279.676 101.65 276.526 92.95 268.426 88C263.026 84.1 255.376 82 244.876 82H211.726V193ZM229.426 97.6H243.526C249.076 97.6 252.526 98.2 255.226 99.55C259.126 101.35 262.726 105.85 262.726 112.6C262.726 118.45 260.776 123.25 255.226 126.25C252.076 127.75 248.026 128.05 243.976 128.05H229.426V97.6ZM229.426 142.9H245.776C251.176 142.9 254.776 143.05 259.126 144.85C264.826 147.25 268.876 152.5 268.876 160.15C268.726 168.55 264.526 173.2 259.126 175.6C255.376 177.1 250.876 177.4 247.276 177.4H229.426V142.9ZM427.059 159.25C424.659 163.3 414.309 179.5 392.859 179.5C369.459 179.5 352.659 160.45 352.659 137.35C352.659 114.85 369.159 95.5 392.709 95.5C412.209 95.65 423.459 109.15 427.059 116.35H445.809C440.409 101.05 422.709 80.05 392.859 79.9C358.509 79.9 334.959 106.9 334.959 137.35C334.959 168.85 359.559 195.1 393.009 195.1C418.209 195.1 438.759 179.5 445.659 159.25H427.059Z" fill="white"/>
</svg>
