<svg width="500" height="500" viewBox="0 0 500 500" fill="none" xmlns="http://www.w3.org/2000/svg">
<rect x="65" y="65" width="370" height="370" rx="185" stroke="#F4F4F4" stroke-width="10"/>
<line x1="446" y1="357" x2="446" y2="157" stroke="black" stroke-width="10"/>
<rect x="430" y="127" width="30" height="30" fill="black"/>
<rect x="430" y="342" width="30" height="30" fill="black"/>
<line x1="54" y1="357" x2="54" y2="157" stroke="black" stroke-width="10"/>
<rect x="38" y="127" width="30" height="30" fill="black"/>
<rect x="38" y="342" width="30" height="30" fill="black"/>
<line x1="358" y1="447" x2="158" y2="447" stroke="black" stroke-width="10"/>
<rect x="128" y="463" width="30" height="30" transform="rotate(-90 128 463)" fill="black"/>
<rect x="343" y="463" width="30" height="30" transform="rotate(-90 343 463)" fill="black"/>
<line x1="358" y1="53" x2="158" y2="53" stroke="black" stroke-width="10"/>
<rect x="128" y="69" width="30" height="30" transform="rotate(-90 128 69)" fill="black"/>
<rect x="343" y="69" width="30" height="30" transform="rotate(-90 343 69)" fill="black"/>
</svg>
