<svg width="2002" height="1294" viewBox="0 0 2002 1294" fill="none" xmlns="http://www.w3.org/2000/svg">
<line x1="532" y1="624.5" x2="1132" y2="624.5" stroke="black" stroke-width="5"/>
<line x1="532" y1="1118.5" x2="1132" y2="1118.5" stroke="black" stroke-width="5"/>
<line x1="532" y1="490.5" x2="1332" y2="490.5" stroke="black" stroke-width="5"/>
<line x1="532" y1="995.5" x2="1332" y2="995.5" stroke="black" stroke-width="5"/>
<circle cx="1846" cy="130" r="47.5" stroke="black" stroke-width="5"/>
<mask id="path-6-inside-1" fill="white">
<rect x="2" width="2000" height="300" rx="2"/>
</mask>
<rect x="2" width="2000" height="300" rx="2" stroke="black" stroke-width="10" mask="url(#path-6-inside-1)"/>
<line x1="1873.9" y1="166.38" x2="1906.3" y2="204.466" stroke="black" stroke-width="5"/>
<mask id="path-8-inside-2" fill="white">
<rect x="2" y="386" width="400" height="400" rx="2"/>
</mask>
<rect x="2" y="386" width="400" height="400" rx="2" stroke="black" stroke-width="10" mask="url(#path-8-inside-2)"/>
<path d="M6 390L399.768 782.232" stroke="black" stroke-width="5"/>
<line x1="5.23448" y1="784.23" x2="400.234" y2="390.23" stroke="black" stroke-width="5"/>
<mask id="path-11-inside-3" fill="white">
<rect y="894" width="400" height="400" rx="2"/>
</mask>
<rect y="894" width="400" height="400" rx="2" stroke="black" stroke-width="10" mask="url(#path-11-inside-3)"/>
<path d="M4 898L397.768 1290.23" stroke="black" stroke-width="5"/>
<line x1="3.23448" y1="1292.23" x2="398.234" y2="898.23" stroke="black" stroke-width="5"/>
</svg>
