<svg width="500" height="500" viewBox="0 0 500 500" fill="none" xmlns="http://www.w3.org/2000/svg">
<path d="M149.52 347H168.4V228.6H127.12V244.6H149.52V347ZM218.603 347H296.683V331H244.363C255.563 320.12 266.603 309.24 277.643 298.36C290.603 285.72 295.883 276.12 296.203 263C296.363 243 282.123 226.36 258.603 226.36C250.283 226.36 236.523 228.92 228.043 240.44C221.483 248.6 219.083 258.2 218.763 268.6H236.843C237.163 253.56 244.363 243 257.003 243C268.683 243 277.483 250.84 277.483 264.28C277.003 278.36 266.603 287.32 255.243 297.72C243.083 309.08 230.923 320.6 218.603 332.12V347ZM349.605 258.84C350.085 251.8 354.085 243 365.285 243C374.405 243 380.005 250.2 380.005 259.16C380.005 267.8 372.325 275.96 360.005 275.96H354.405V290.2H363.205C376.485 290.2 387.045 299 387.045 311.16C387.045 323 379.365 332.6 365.925 332.6C353.605 332.44 344.965 323.64 344.325 312.12H325.285C325.445 318.68 327.365 327 332.325 334.04C339.685 344.12 353.125 349.24 365.445 349.24C388.165 349.24 405.925 333.4 405.925 312.12C405.925 306.04 404.005 288.92 382.725 281.56C390.245 277.56 398.725 270.04 398.725 256.6C398.725 239.32 384.965 226.36 365.925 226.36C351.205 226.36 331.845 235 331.045 258.84H349.605Z" fill="black"/>
<path d="M138.56 159.5H182.8L192.6 184H210.52L168.66 80.4H153.68L111.12 184H129.04L138.56 159.5ZM178.32 146.2H143.04L160.54 99.58L178.32 146.2ZM232.011 184H262.391C275.131 184 281.291 183.02 288.571 177.98C296.551 173.22 301.031 164.54 301.171 154.32C301.171 149.7 300.191 134.44 282.271 128.7C289.691 124.78 295.431 117.92 295.431 107C295.431 98.74 292.491 90.62 284.931 86C279.891 82.36 272.751 80.4 262.951 80.4H232.011V184ZM248.531 94.96H261.691C266.871 94.96 270.091 95.52 272.611 96.78C276.251 98.46 279.611 102.66 279.611 108.96C279.611 114.42 277.791 118.9 272.611 121.7C269.671 123.1 265.891 123.38 262.111 123.38H248.531V94.96ZM248.531 137.24H263.791C268.831 137.24 272.191 137.38 276.251 139.06C281.571 141.3 285.351 146.2 285.351 153.34C285.211 161.18 281.291 165.52 276.251 167.76C272.751 169.16 268.551 169.44 265.191 169.44H248.531V137.24ZM407.789 152.5C405.549 156.28 395.889 171.4 375.869 171.4C354.029 171.4 338.349 153.62 338.349 132.06C338.349 111.06 353.749 93 375.729 93C393.929 93.14 404.429 105.74 407.789 112.46H425.289C420.249 98.18 403.729 78.58 375.869 78.44C343.809 78.44 321.829 103.64 321.829 132.06C321.829 161.46 344.789 185.96 376.009 185.96C399.529 185.96 418.709 171.4 425.149 152.5H407.789Z" fill="white"/>
<path d="M9 213H80.977" stroke="black" stroke-width="10"/>
<path d="M45 250V175" stroke="black" stroke-width="10"/>
<line x1="110" y1="398" x2="440" y2="398" stroke="black" stroke-width="10"/>
</svg>
