<svg width="203" height="209" viewBox="0 0 203 209" fill="none" xmlns="http://www.w3.org/2000/svg">
<path d="M2.81306 94.4633L2.83105 97.5832L8.50096 97.5505L11.3809 97.5339C10.0947 98.2013 8.24654 100.252 8.26575 103.582C8.29257 108.232 11.8536 111.871 16.9235 111.842C21.6335 111.815 25.5747 108.552 25.5451 103.422C25.5257 100.062 23.8652 98.2419 22.18 97.3516L25.03 97.3352L25.0127 94.3352L2.81306 94.4633ZM16.9055 108.722C13.8456 108.74 11.1925 106.475 11.1726 103.025C11.1634 101.435 11.7553 100.022 12.7694 98.9959C13.7535 97.9702 15.1598 97.3321 16.7798 97.3228C18.3994 97.2534 19.8428 97.8451 20.8989 98.889C21.9548 99.9029 22.6232 101.369 22.6324 102.959C22.6532 106.559 19.9353 108.675 16.9355 108.722L16.9055 108.722Z" fill="black"/>
<path d="M17.6964 89.0281C21.9641 90.0136 26.8079 87.8377 28.0431 82.4884C29.2784 77.1392 25.8791 73.0598 21.6114 72.0743C17.3437 71.0888 12.4707 73.258 11.2354 78.6072C10.0002 83.9564 13.4287 88.0426 17.6672 89.0214L17.6964 89.0281ZM18.3984 85.9881C15.2122 85.2524 13.3981 82.3087 14.1 79.2687C14.802 76.2287 17.7232 74.3785 20.9094 75.1143C24.0955 75.85 25.9097 78.7937 25.2077 81.8337C24.5057 84.8737 21.5846 86.7239 18.4276 85.9949L18.3984 85.9881Z" fill="black"/>
<path d="M34.408 67.1037L35.553 64.3633L26.325 56.8012L38.2247 57.969L39.3697 55.2286L26.4046 43.9266L25.1555 46.9162L35.0751 55.1575L23.2193 54.0404L22.2131 56.4487L31.3626 64.043L18.5053 62.8327L17.2446 65.8499L34.408 67.1037Z" fill="black"/>
<path d="M44.5936 49.563L46.6269 47.1965L39.7324 41.2725C37.5935 39.4347 37.0561 37.114 39.0276 34.7735C41.0773 32.342 43.413 32.8459 45.6429 34.762L52.3554 40.5295L54.4083 38.1404L47.1497 31.9035C44.5785 29.6943 40.8121 28.2775 37.3647 32.1976C35.4455 34.3852 35.2768 36.653 36.0427 38.3395L34.1313 36.6972L32.2153 38.9271L44.5936 49.563Z" fill="black"/>
<path d="M61.0988 34.7887L63.6764 33.0308L51.1682 14.69L48.5905 16.4479L61.0988 34.7887Z" fill="black"/>
<path d="M64.9323 22.9373C66.6903 26.949 71.3282 29.5349 76.3565 27.3314C81.3849 25.1279 82.6272 19.9652 80.8692 15.9535C79.1112 11.9418 74.4613 9.32835 69.4329 11.5319C64.4045 13.7354 63.1743 18.9256 64.9202 22.9098L64.9323 22.9373ZM67.7899 21.685C66.4774 18.69 67.7553 15.4769 70.6129 14.2247C73.4706 12.9724 76.6991 14.2107 78.0115 17.2057C79.324 20.2008 78.0462 23.4138 75.1885 24.6661C72.3309 25.9184 69.1024 24.6801 67.802 21.7125L67.7899 21.685Z" fill="black"/>
<path d="M102.989 8.72998L99.8703 8.80394L99.9386 11.6831C99.1518 10.1414 97.0397 8.39094 93.8006 8.46775C89.0619 8.58012 85.5197 12.3252 85.6378 17.3038C85.7459 21.8625 88.9617 25.8674 94.2103 25.7429C96.7895 25.6817 99.1019 24.4866 100.19 22.2702L100.257 25.1194L103.376 25.0454L102.989 8.72998ZM88.7576 17.2598C88.6851 14.2006 90.8404 11.4488 94.2595 11.3677C96.8688 11.3058 98.7331 12.732 99.5577 14.603C99.9354 15.3442 100.105 16.1804 100.095 17.0209C100.085 17.8614 99.925 18.7054 99.5829 19.4638C98.8172 21.3424 97.0805 22.764 94.5912 22.823C90.6323 22.9169 88.8459 19.7184 88.7583 17.2898L88.7576 17.2598Z" fill="black"/>
<path d="M130.891 8.33225L127.917 7.38877L126.202 12.7933L125.332 15.5385C125.093 14.1093 123.71 11.7195 120.536 10.7125C116.104 9.30636 111.545 11.5739 110.012 16.4065C108.588 20.896 110.478 25.6503 115.368 27.2016C118.571 28.2177 120.814 27.1983 122.18 25.8691L121.318 28.5857L124.178 29.4929L130.891 8.33225ZM112.986 17.35C113.911 14.4332 116.883 12.6063 120.171 13.6496C121.687 14.1304 122.849 15.1287 123.513 16.4094C124.186 17.6614 124.36 19.1959 123.87 20.7401C123.437 22.3024 122.43 23.4935 121.112 24.1769C119.822 24.8693 118.221 25.0538 116.706 24.573C113.274 23.4844 112.098 20.2472 112.977 17.3786L112.986 17.35Z" fill="black"/>
<path d="M155.627 40.3464C154.251 41.4273 151.949 42.0145 149.562 40.6892C146.851 39.1449 145.887 35.8679 147.55 32.9484C148.367 31.5147 149.671 30.4972 150.981 30.1382C152.506 29.7641 153.816 29.8889 155.235 30.7317C157.164 31.8306 158.327 33.9091 157.973 36.2278L160.762 37.8167C161.821 33.8971 159.96 30.0743 156.571 28.1438C152.322 25.7233 147.23 27.2072 144.839 31.404C142.597 35.3401 143.508 40.5893 148.148 43.2326C151.693 45.2522 155.804 44.5211 158.416 41.9353L155.627 40.3464Z" fill="black"/>
<path d="M177.176 46.5557L174.784 44.3254L163 50.3188L168.158 38.1462L165.767 35.916L159.2 52.107L161.481 54.235L177.176 46.5557Z" fill="black"/>
<path d="M186.623 72.6159C185.872 70.5904 183.727 69.7217 181.842 70.4201C179.957 71.1184 178.945 73.2212 179.664 75.1622C180.373 77.0751 182.493 78.0491 184.406 77.3403C186.319 76.6315 187.332 74.5288 186.633 72.644L186.623 72.6159Z" fill="black"/>
<path d="M197.947 123.709L198.292 120.608L192.656 119.982L189.794 119.664C191.149 119.151 193.223 117.328 193.59 114.019C194.103 109.397 190.989 105.369 185.95 104.809C181.268 104.289 176.975 107.073 176.409 112.171C176.038 115.511 177.476 117.512 179.046 118.592L176.214 118.277L175.883 121.259L197.947 123.709ZM185.605 107.91C188.647 108.248 191.019 110.805 190.638 114.234C190.463 115.814 189.711 117.15 188.584 118.051C187.488 118.955 186.017 119.426 184.407 119.247C182.79 119.128 181.425 118.373 180.497 117.213C179.566 116.084 179.073 114.55 179.248 112.969C179.645 109.391 182.591 107.606 185.576 107.907L185.605 107.91Z" fill="black"/>
<path d="M183.709 126.273C179.585 124.798 174.521 126.397 172.673 131.567C170.825 136.737 173.728 141.183 177.852 142.657C181.977 144.132 187.069 142.543 188.917 137.373C190.765 132.204 187.834 127.747 183.737 126.283L183.709 126.273ZM182.659 129.211C185.738 130.311 187.198 133.446 186.148 136.384C185.098 139.322 181.982 140.82 178.903 139.719C175.823 138.619 174.363 135.484 175.413 132.546C176.464 129.608 179.58 128.11 182.631 129.201L182.659 129.211Z" fill="black"/>
<path d="M169.664 145.09L168.083 147.604L175.94 156.583L164.395 153.472L162.815 155.986L173.742 169.269L175.466 166.525L167.039 156.763L178.549 159.817L179.938 157.608L172.164 148.61L184.646 151.921L186.387 149.153L169.664 145.09Z" fill="black"/>
<path d="M157.876 161.916L155.392 163.804L160.892 171.041C162.599 173.287 162.638 175.668 160.22 177.544C157.706 179.492 155.528 178.51 153.749 176.169L148.394 169.123L145.886 171.029L151.677 178.648C153.728 181.347 157.114 183.522 161.306 180.411C163.641 178.674 164.281 176.492 163.886 174.682L165.41 176.689L167.751 174.91L157.876 161.916Z" fill="black"/>
<path d="M140.293 174.114L137.414 175.315L145.956 195.805L148.836 194.605L140.293 174.114Z" fill="black"/>
<path d="M135.386 185.093C134.106 180.904 129.8 177.797 124.55 179.402C119.299 181.007 117.466 185.991 118.746 190.179C120.027 194.368 124.342 197.504 129.592 195.899C134.842 194.294 136.667 189.282 135.395 185.122L135.386 185.093ZM132.403 186.005C133.359 189.132 131.716 192.175 128.733 193.087C125.749 193.999 122.686 192.395 121.73 189.267C120.774 186.14 122.416 183.097 125.4 182.185C128.384 181.273 131.447 182.878 132.394 185.976L132.403 186.005Z" fill="black"/>
<path d="M96.1226 198.341L99.2331 198.584L99.4571 195.713C100.083 197.326 102.007 199.282 105.237 199.534C109.963 199.902 113.867 196.536 114.254 191.571C114.608 187.024 111.815 182.714 106.581 182.306C104.009 182.105 101.587 183.06 100.28 185.155L100.502 182.313L97.3915 182.071L96.1226 198.341ZM111.146 191.298C110.908 194.349 108.485 196.868 105.075 196.602C102.473 196.399 100.763 194.791 100.132 192.847C99.8314 192.071 99.7471 191.222 99.8423 190.387C99.9376 189.551 100.182 188.728 100.6 188.008C101.552 186.217 103.424 184.979 105.906 185.172C109.854 185.48 111.307 188.843 111.148 191.268L111.146 191.298Z" fill="black"/>
<path d="M70.3224 196.92L73.2232 198.068L75.311 192.797L76.3715 190.119C76.5101 191.562 77.7219 194.042 80.8179 195.268C85.1412 196.98 89.8476 195.037 91.7144 190.323C93.4487 185.944 91.8945 181.069 87.1249 179.18C84.001 177.943 81.692 178.803 80.2366 180.034L81.2861 177.384L78.4968 176.279L70.3224 196.92ZM88.8136 189.174C87.6869 192.019 84.595 193.634 81.3874 192.364C79.9091 191.778 78.8191 190.701 78.2463 189.377C77.6625 188.081 77.596 186.538 78.1925 185.032C78.7332 183.504 79.8213 182.386 81.1841 181.796C82.5191 181.196 84.1288 181.123 85.6071 181.709C88.9542 183.035 89.9014 186.346 88.8247 189.146L88.8136 189.174Z" fill="black"/>
<path d="M48.5664 166.859C50.058 165.945 52.4131 165.629 54.6301 167.222C57.1434 169.071 57.7208 172.438 55.7299 175.144C54.7523 176.474 53.3382 177.333 51.996 177.537C50.4378 177.732 49.1512 177.456 47.8398 176.454C46.0514 175.139 45.1369 172.939 45.7579 170.677L43.172 168.775C41.6651 172.545 43.0705 176.558 46.2122 178.869C50.1514 181.767 55.3814 180.884 58.2432 176.993C60.9274 173.344 60.6318 168.025 56.3301 164.86C53.0435 162.443 48.8756 162.692 45.9806 164.957L48.5664 166.859Z" fill="black"/>
<path d="M25.5608 157.618L27.6771 160.111L40.077 155.526L33.5407 167.018L35.6571 169.51L44.0597 154.191L42.0404 151.813L25.5608 157.618Z" fill="black"/>
<path d="M21.5079 137.577C22.9981 139.14 25.3123 139.09 26.7672 137.703C28.2222 136.316 28.3205 133.984 26.8923 132.486C25.4848 131.009 23.1521 130.953 21.6754 132.361C20.1987 133.768 20.1004 136.1 21.4872 137.555L21.5079 137.577Z" fill="black"/>
</svg>
