<svg width="213" height="216" viewBox="0 0 213 216" fill="none" xmlns="http://www.w3.org/2000/svg">
<path d="M44.3222 68.1404C43.2263 69.839 41.7558 70.7672 39.9108 70.925C38.0657 71.0827 36.0313 70.4442 33.8075 69.0094C31.5755 67.5694 30.1497 65.9696 29.53 64.21C28.9074 62.437 29.1467 60.6971 30.248 58.9902C31.4021 57.2013 32.9416 56.2653 34.8663 56.1823L34.9616 56.0345C33.8951 55.544 33.0787 55.1161 32.5125 54.7508L27.552 51.5504L29.4262 48.6455L48.5789 61.0024L47.1176 63.2673L45.0072 62.6204L44.9199 62.7558C45.6756 64.5567 45.4764 66.3515 44.3222 68.1404ZM42.4838 65.8561C43.2515 64.6662 43.4777 63.5861 43.1625 62.6156C42.839 61.6399 41.9317 60.6594 40.4406 59.6741L40.0344 59.4121C38.3194 58.3055 36.9208 57.7983 35.8387 57.8904C34.7565 57.9825 33.8316 58.6235 33.0639 59.8134C32.4074 60.8309 32.3162 61.882 32.7903 62.9665C33.2562 64.0457 34.2523 65.0777 35.7786 66.0625C37.2885 67.0366 38.6135 67.5138 39.7536 67.4939C40.8855 67.4688 41.7956 66.9228 42.4838 65.8561Z" fill="black"/>
<path d="M55.3956 43.3722C57.1178 45.3816 57.9467 47.3915 57.882 49.4019C57.8174 51.4123 56.8656 53.2056 55.0268 54.7817C53.8775 55.7668 52.6392 56.3779 51.312 56.6152C49.9848 56.8524 48.6676 56.6887 47.3606 56.1242C46.0535 55.5596 44.8502 54.6359 43.7508 53.3531C42.0412 51.3586 41.2182 49.363 41.2818 47.3663C41.3454 45.3697 42.3077 43.5738 44.1688 41.9786C45.9483 40.4533 47.8497 39.8205 49.8728 40.08C51.8896 40.3322 53.7305 41.4295 55.3956 43.3722ZM46.4423 51.0462C48.8764 53.886 51.1426 54.4067 53.2409 52.6081C55.3171 50.8287 55.1381 48.519 52.704 45.6792C50.2954 42.869 48.0456 42.36 45.9546 44.1522C44.8573 45.0928 44.3716 46.1393 44.4976 47.2917C44.6311 48.4378 45.2793 49.6893 46.4423 51.0462Z" fill="black"/>
<path d="M74.3361 41.001L68.6048 35.6463C67.9703 35.0958 66.608 33.7483 64.5177 31.6041L64.4053 31.6729C65.2981 34.2177 65.8908 36.0474 66.1834 37.162L68.2757 44.7085L65.0268 46.696L52.6986 35.2455L55.6976 33.4109L61.6256 39.1432C63.0549 40.5813 64.2198 41.8492 65.1202 42.9468L65.1952 42.901C64.9065 42.2419 64.6059 41.4699 64.2935 40.5849C63.9843 39.6865 63.7724 39.0033 63.6578 38.5353L61.3081 29.9786L64.532 28.0064L71.0178 34.0328C71.3924 34.3646 71.9288 34.8951 72.6268 35.6243C73.3331 36.3485 73.8456 36.9336 74.1643 37.3798L74.2643 37.3186C73.7624 36.2175 73.1774 34.6063 72.5093 32.485L70.1301 24.5817L73.0791 22.7777L77.635 38.9829L74.3361 41.001Z" fill="black"/>
<path d="M96.6541 32.6843L93.3071 33.5495L90.8141 23.9055C90.5012 22.6953 90.022 21.8559 89.3764 21.3874C88.7402 20.9164 87.8926 20.8177 86.8337 21.0915C85.4249 21.4557 84.5019 22.1381 84.0646 23.1387C83.6273 24.1394 83.6616 25.6183 84.1675 27.5755L86.1876 35.3899L82.8547 36.2514L78.8 20.5659L81.4095 19.8913L82.4091 21.8267L82.5793 21.7827C82.859 20.9136 83.3812 20.1633 84.1459 19.5319C84.9107 18.9005 85.8225 18.4479 86.8814 18.1742C90.6445 17.2014 93.0209 18.6297 94.0108 22.4589L96.6541 32.6843Z" fill="black"/>
<path d="M104.47 32.0849L101.03 32.2205L100.132 9.44526L103.572 9.30964L104.47 32.0849Z" fill="black"/>
<path d="M125.028 26.8395C124.7 29.4656 123.771 31.431 122.24 32.7358C120.709 34.0407 118.742 34.5431 116.339 34.2431C114.837 34.0556 113.551 33.5507 112.483 32.7284C111.415 31.9062 110.649 30.8216 110.188 29.4748C109.726 28.1279 109.6 26.6162 109.809 24.9398C110.134 22.3331 111.057 20.3815 112.577 19.0852C114.097 17.7889 116.073 17.2925 118.505 17.5961C120.831 17.8864 122.578 18.8673 123.748 20.5386C124.918 22.2003 125.345 24.3006 125.028 26.8395ZM113.327 25.3789C112.863 29.0903 114.003 31.1172 116.745 31.4595C119.459 31.7982 121.047 30.1118 121.51 26.4004C121.969 22.7277 120.831 20.7208 118.099 20.3797C116.665 20.2007 115.564 20.5455 114.796 21.4141C114.038 22.2839 113.548 23.6055 113.327 25.3789Z" fill="black"/>
<path d="M135.695 39.1074L135.818 36.7521L135.708 36.7121C134.637 37.3722 133.668 37.737 132.801 37.8064C131.937 37.8667 130.923 37.685 129.757 37.2613C128.261 36.7176 127.238 35.8885 126.687 34.7739C126.145 33.6627 126.143 32.3682 126.68 30.8905C127.25 29.3211 128.263 28.3489 129.719 27.974C131.175 27.5991 133.109 27.8085 135.522 28.6024L138.182 29.4754L138.477 28.6631C138.831 27.6902 138.865 26.8818 138.579 26.2377C138.306 25.5878 137.693 25.0894 136.738 24.7425C135.958 24.459 135.168 24.3019 134.369 24.2711C133.57 24.2404 132.783 24.261 132.009 24.3329L131.803 21.6397C132.786 21.5086 133.808 21.5113 134.87 21.6479C135.936 21.7754 136.904 21.9975 137.776 22.3144C139.713 23.0182 141.019 23.9708 141.694 25.1721C142.379 26.3767 142.392 27.8831 141.735 29.6912L138.008 39.948L135.695 39.1074ZM131.677 35.1535C132.851 35.5804 133.911 35.5965 134.854 35.2017C135.81 34.801 136.503 34.0087 136.934 32.8247L137.414 31.503L135.429 30.8751C133.885 30.3765 132.681 30.2299 131.817 30.4353C130.965 30.6348 130.369 31.2027 130.029 32.1389C129.782 32.8181 129.792 33.4192 130.059 33.9423C130.33 34.4562 130.869 34.8599 131.677 35.1535Z" fill="black"/>
<path d="M145.942 44.8916C144.244 43.7957 143.315 42.3252 143.158 40.4802C143 38.6351 143.638 36.6007 145.073 34.3769C146.513 32.1449 148.113 30.719 149.873 30.0994C151.646 29.4768 153.386 29.7161 155.092 30.8173C156.881 31.9715 157.817 33.5109 157.9 35.4356L158.048 35.5309C158.539 34.4644 158.967 33.6481 159.332 33.0819L162.532 28.1214L165.437 29.9956L153.08 49.1482L150.815 47.687L151.462 45.5766L151.327 45.4893C149.526 46.245 147.731 46.0458 145.942 44.8916ZM148.227 43.0532C149.416 43.8209 150.497 44.0471 151.467 43.7318C152.443 43.4084 153.423 42.5011 154.409 41.01L154.671 40.6038C155.777 38.8888 156.284 37.4902 156.192 36.408C156.1 35.3259 155.459 34.401 154.269 33.6333C153.252 32.9768 152.201 32.8856 151.116 33.3597C150.037 33.8256 149.005 34.8217 148.02 36.348C147.046 37.8579 146.569 39.1829 146.589 40.323C146.614 41.4549 147.16 42.3649 148.227 43.0532Z" fill="black"/>
<path d="M170.71 70.6257C169.431 68.5347 169.066 66.5716 169.615 64.7363C170.177 62.9042 171.599 61.2899 173.882 59.8936C176.206 58.4718 178.339 57.9451 180.282 58.3136C182.23 58.6905 183.861 59.9535 185.176 62.1028C186.068 63.5606 186.599 65.0383 186.771 66.5358L183.867 67.0933C183.591 65.5565 183.206 64.3841 182.711 63.576C181.249 61.1852 178.93 60.9606 175.756 62.9023C174.207 63.8501 173.222 64.8593 172.8 65.9298C172.393 67.0036 172.54 68.1152 173.244 69.2649C174.044 70.5727 175.125 71.6111 176.489 72.3798L173.927 73.9469C173.298 73.6106 172.733 73.1834 172.233 72.6651C171.738 72.1552 171.23 71.4754 170.71 70.6257Z" fill="black"/>
<path d="M176.453 82.4208L189.846 71.4225L191.005 74.8656L183.129 80.9935C181.81 82.0349 180.707 82.7669 179.819 83.1894L179.856 83.3005C180.55 83.1595 181.872 83.0754 183.82 83.0482L193.799 83.1678L194.967 86.6387L177.64 85.9472L176.453 82.4208Z" fill="black"/>
<path d="M191.52 114.157C192.858 114.324 193.835 114.771 194.453 115.497C195.071 116.224 195.306 117.178 195.158 118.361C195.012 119.533 194.545 120.395 193.758 120.946C192.979 121.509 191.926 121.707 190.599 121.541C189.29 121.378 188.318 120.927 187.682 120.188C187.046 119.449 186.801 118.498 186.946 117.336C187.091 116.173 187.553 115.31 188.332 114.748C189.12 114.187 190.183 113.99 191.52 114.157Z" fill="black"/>
<path d="M169.191 146.512C170.287 144.813 171.758 143.885 173.603 143.727C175.448 143.569 177.482 144.208 179.706 145.643C181.938 147.083 183.364 148.682 183.983 150.442C184.606 152.215 184.367 153.955 183.265 155.662C182.111 157.451 180.572 158.387 178.647 158.47L178.552 158.618C179.618 159.108 180.435 159.536 181.001 159.901L185.961 163.102L184.087 166.007L164.934 153.65L166.396 151.385L168.506 152.032L168.593 151.896C167.838 150.095 168.037 148.301 169.191 146.512ZM171.029 148.796C170.262 149.986 170.036 151.066 170.351 152.036C170.674 153.012 171.582 153.993 173.073 154.978L173.479 155.24C175.194 156.347 176.593 156.854 177.675 156.762C178.757 156.67 179.682 156.029 180.449 154.839C181.106 153.821 181.197 152.77 180.723 151.686C180.257 150.606 179.261 149.574 177.735 148.59C176.225 147.615 174.9 147.138 173.76 147.158C172.628 147.183 171.718 147.729 171.029 148.796Z" fill="black"/>
<path d="M158.394 173.38C156.545 171.487 155.588 169.535 155.522 167.524C155.457 165.514 156.29 163.663 158.023 161.971C159.106 160.914 160.302 160.224 161.611 159.901C162.921 159.578 164.245 159.656 165.586 160.135C166.927 160.614 168.188 161.458 169.368 162.666C171.203 164.546 172.154 166.484 172.22 168.481C172.285 170.477 171.441 172.332 169.688 174.044C168.011 175.681 166.154 176.436 164.118 176.308C162.09 176.187 160.181 175.211 158.394 173.38ZM166.832 165.143C164.219 162.467 161.924 162.094 159.946 164.024C157.99 165.935 158.318 168.228 160.931 170.904C163.516 173.552 165.794 173.915 167.765 171.991C168.799 170.981 169.216 169.905 169.015 168.763C168.808 167.628 168.08 166.422 166.832 165.143Z" fill="black"/>
<path d="M139.03 175.388L144.536 180.973C145.148 181.549 146.454 182.952 148.454 185.18L148.569 185.116C147.782 182.536 147.265 180.684 147.018 179.558L145.237 171.932L148.565 170.08L160.413 182.026L157.341 183.736L151.653 177.766C150.284 176.27 149.172 174.955 148.318 173.822L148.241 173.865C148.502 174.535 148.771 175.319 149.047 176.216C149.319 177.126 149.502 177.817 149.598 178.29L151.595 186.935L148.292 188.774L142.059 182.486C141.699 182.14 141.184 181.588 140.517 180.83C139.841 180.078 139.353 179.472 139.053 179.013L138.95 179.07C139.407 180.191 139.925 181.825 140.506 183.972L142.559 191.966L139.538 193.648L135.651 177.269L139.03 175.388Z" fill="black"/>
<path d="M115.572 182.481L118.962 181.806L120.908 191.575C121.152 192.801 121.583 193.666 122.202 194.17C122.81 194.676 123.651 194.822 124.724 194.609C126.151 194.324 127.111 193.695 127.604 192.721C128.097 191.746 128.146 190.268 127.751 188.285L126.174 180.369L129.55 179.697L132.715 195.586L130.072 196.112L129.183 194.124L129.01 194.158C128.682 195.01 128.118 195.73 127.319 196.317C126.52 196.904 125.584 197.305 124.512 197.519C120.7 198.278 118.408 196.718 117.635 192.839L115.572 182.481Z" fill="black"/>
<path d="M107.288 183.536L110.727 183.389L111.698 206.161L108.259 206.308L107.288 183.536Z" fill="black"/>
<path d="M88.4856 187.813C88.8134 185.187 89.7427 183.221 91.2735 181.916C92.8043 180.611 94.7713 180.109 97.1746 180.409C98.6766 180.596 99.9618 181.101 101.03 181.924C102.099 182.746 102.864 183.83 103.326 185.177C103.787 186.524 103.914 188.036 103.704 189.712C103.379 192.319 102.456 194.271 100.936 195.567C99.4165 196.863 97.4404 197.36 95.0081 197.056C92.6824 196.766 90.9349 195.785 89.7658 194.113C88.5954 192.452 88.1686 190.352 88.4856 187.813ZM100.187 189.273C100.65 185.562 99.5105 183.535 96.7681 183.193C94.0547 182.854 92.4665 184.54 92.0032 188.252C91.5447 191.924 92.6819 193.931 95.4146 194.272C96.8488 194.451 97.9497 194.107 98.7175 193.238C99.4757 192.368 99.9654 191.047 100.187 189.273Z" fill="black"/>
<path d="M77.8187 175.545L77.6953 177.9L77.8054 177.94C78.8766 177.28 79.8456 176.915 80.7124 176.846C81.576 176.785 82.5905 176.967 83.7562 177.391C85.2523 177.934 86.2757 178.764 86.8266 179.878C87.3683 180.989 87.3706 182.284 86.8336 183.762C86.2632 185.331 85.2501 186.303 83.7943 186.678C82.3384 187.053 80.404 186.844 77.9909 186.05L75.3313 185.177L75.0361 185.989C74.6825 186.962 74.6485 187.77 74.934 188.414C75.2069 189.064 75.8207 189.563 76.7752 189.91C77.5554 190.193 78.3451 190.35 79.1444 190.381C79.9437 190.412 80.7304 190.391 81.5047 190.319L81.7105 193.012C80.7276 193.144 79.7052 193.141 78.643 193.004C77.5776 192.877 76.6089 192.655 75.7369 192.338C73.8003 191.634 72.4944 190.681 71.8192 189.48C71.1348 188.275 71.1212 186.769 71.7783 184.961L75.5058 174.704L77.8187 175.545ZM81.8368 179.499C80.662 179.072 79.6028 179.056 78.6592 179.45C77.7032 179.851 77.01 180.643 76.5797 181.827L76.0994 183.149L78.0844 183.777C79.628 184.276 80.8319 184.422 81.6963 184.217C82.5481 184.017 83.1441 183.449 83.4843 182.513C83.7312 181.834 83.721 181.233 83.454 180.71C83.1835 180.196 82.6445 179.792 81.8368 179.499Z" fill="black"/>
<path d="M67.571 169.76C69.2697 170.856 70.1979 172.327 70.3556 174.172C70.5133 176.017 69.8748 178.051 68.4401 180.275C67 182.507 65.4002 183.933 63.6407 184.553C61.8676 185.175 60.1277 184.936 58.4209 183.835C56.632 182.681 55.696 181.141 55.6129 179.216L55.4652 179.121C54.9746 180.188 54.5467 181.004 54.1814 181.57L50.981 186.531L48.0761 184.657L60.4331 165.504L62.6979 166.965L62.051 169.075L62.1864 169.163C63.9873 168.407 65.7821 168.606 67.571 169.76ZM65.2867 171.599C64.0968 170.831 63.0167 170.605 62.0463 170.92C61.0705 171.244 60.09 172.151 59.1048 173.642L58.8427 174.048C57.7362 175.763 57.229 177.162 57.3211 178.244C57.4132 179.326 58.0542 180.251 59.244 181.019C60.2616 181.675 61.3126 181.766 62.3971 181.292C63.4763 180.827 64.5083 179.83 65.4931 178.304C66.4672 176.794 66.9444 175.469 66.9246 174.329C66.8994 173.197 66.3535 172.287 65.2867 171.599Z" fill="black"/>
<path d="M42.8029 144.026C44.0821 146.117 44.4473 148.081 43.8987 149.916C43.3366 151.748 41.9143 153.362 39.6317 154.759C37.3075 156.18 35.1741 156.707 33.2315 156.339C31.2837 155.962 29.6525 154.699 28.3376 152.549C27.4458 151.092 26.9139 149.614 26.7419 148.116L29.6463 147.559C29.9225 149.096 30.3077 150.268 30.8021 151.076C32.2647 153.467 34.5829 153.692 37.7568 151.75C39.3063 150.802 40.2916 149.793 40.7129 148.722C41.1207 147.649 40.973 146.537 40.2697 145.387C39.4696 144.079 38.3879 143.041 37.0247 142.272L39.5863 140.705C40.2156 141.041 40.7803 141.469 41.2805 141.987C41.7756 142.497 42.2831 143.177 42.8029 144.026Z" fill="black"/>
<path d="M37.06 132.231L23.6673 143.23L22.5086 139.786L30.3844 133.659C31.7032 132.617 32.8066 131.885 33.6948 131.463L33.6574 131.352C32.963 131.493 31.6415 131.577 29.6929 131.604L19.7147 131.484L18.5467 128.013L35.8733 128.705L37.06 132.231Z" fill="black"/>
<path d="M21.993 100.495C20.6557 100.328 19.6782 99.8814 19.0603 99.1547C18.4424 98.4281 18.2072 97.4736 18.3548 96.2914C18.5012 95.1189 18.968 94.257 19.7552 93.7057C20.534 93.1435 21.5871 92.9453 22.9147 93.111C24.2229 93.2743 25.1951 93.7253 25.8311 94.4641C26.4672 95.2029 26.7126 96.1537 26.5675 97.3165C26.4223 98.4794 25.9603 99.3419 25.1816 99.9041C24.3932 100.465 23.3303 100.662 21.993 100.495Z" fill="black"/>
</svg>
