<svg xmlns="http://www.w3.org/2000/svg" width="2000" height="2000" viewBox="0 0 2000 2000">
  <g id="Group_39" data-name="Group 39" transform="translate(-13187 -8068)">
    <rect id="Rectangle_5" data-name="Rectangle 5" width="2000" height="2000" transform="translate(13187 8068)" fill="#fff0e6"/>
    <g id="CHART" transform="translate(13520.773 8698.898)">
      <g id="Group_15" data-name="Group 15" transform="translate(0 0)">
        <rect id="Rectangle_4" data-name="Rectangle 4" width="1366.109" height="824.853" fill="#fff0e6"/>
      </g>
      <path id="Path_13" data-name="Path 13" d="M1685.879,1459.06h-210.93v202.35h210.93Zm-262.4-159.26H1212.56v361.61h210.92Zm-262.39-68.64H950.166v430.25h210.924ZM898.7,1149.5H687.772v511.911H898.7ZM636.3,1516.86H425.378v144.55H636.3Z" transform="translate(-364.611 -903.353)" fill="#ffa396" fill-rule="evenodd"/>
    </g>
    <g id="ARROW" transform="translate(13540.003 8714.503)">
      <path id="Path_14" data-name="Path 14" d="M1593.65,1185.51l10.368-26.62,69.873,90.2-111.256,16.06,10.943-28.1L967.528,984.113l-56.115,100.5-102.4-52.69-207.654,536.95-140.23-70.43c-29.793,50.29-54.533,93.99-74.062,122.47l-44.27-31.92c21.819-31.81,50.193-83.07,85.057-141.13l12.881-21.45,131.884,66.24L780.486,955.161l109.412,56.3,54.183-97.04Z" transform="translate(-342.801 -914.42)" fill="#cd0000" fill-rule="evenodd"/>
    </g>
  </g>
</svg>
